<svg viewBox="38 13 80 80" fill="none" xmlns="http://www.w3.org/2000/svg" role="img" aria-label="Planner7 symbol">
  <rect x="38" y="13" width="80" height="80" rx="20" fill="white" />
  <path d="M78 68C75.925 68 73.975 67.6063 72.15 66.8188C70.325 66.0313 68.7375 64.9625 67.3875 63.6125C66.0375 62.2625 64.9688 60.675 64.1812 58.85C63.3937 57.025 63 55.075 63 53C63 51.925 63.1125 50.8688 63.3375 49.8313C63.5625 48.7938 63.8875 47.7875 64.3125 46.8125L66.6375 49.1375C66.4375 49.7875 66.2813 50.4313 66.1688 51.0688C66.0563 51.7063 66 52.35 66 53C66 56.35 67.1625 59.1875 69.4875 61.5125C71.8125 63.8375 74.65 65 78 65C81.35 65 84.1875 63.8375 86.5125 61.5125C88.8375 59.1875 90 56.35 90 53C90 49.65 88.8375 46.8125 86.5125 44.4875C84.1875 42.1625 81.35 41 78 41C77.325 41 76.6687 41.0563 76.0312 41.1688C75.3938 41.2813 74.7625 41.4375 74.1375 41.6375L71.85 39.35C72.85 38.9 73.85 38.5625 74.85 38.3375C75.85 38.1125 76.9 38 78 38C80.075 38 82.025 38.3937 83.85 39.1812C85.675 39.9688 87.2625 41.0375 88.6125 42.3875C89.9625 43.7375 91.0313 45.325 91.8188 47.15C92.6063 48.975 93 50.925 93 53C93 55.075 92.6063 57.025 91.8188 58.85C91.0313 60.675 89.9625 62.2625 88.6125 63.6125C87.2625 64.9625 85.675 66.0313 83.85 66.8188C82.025 67.6063 80.075 68 78 68V68M68.25 45.5C67.625 45.5 67.0938 45.2812 66.6562 44.8438C66.2188 44.4062 66 43.875 66 43.25C66 42.625 66.2188 42.0938 66.6562 41.6562C67.0938 41.2188 67.625 41 68.25 41C68.875 41 69.4062 41.2188 69.8438 41.6562C70.2812 42.0938 70.5 42.625 70.5 43.25C70.5 43.875 70.2812 44.4062 69.8438 44.8438C69.4062 45.2812 68.875 45.5 68.25 45.5V45.5M78 53V53V53V53V53V53V53V53V53V53" fill="#D2EB74" />
</svg>
