<svg width="272" height="50" viewBox="0 0 272 50" fill="none" xmlns="http://www.w3.org/2000/svg">
<path d="M25 50C21.5417 50 18.2917 49.3438 15.25 48.0312C12.2083 46.7188 9.5625 44.9375 7.3125 42.6875C5.0625 40.4375 3.28125 37.7917 1.96875 34.75C0.65625 31.7083 0 28.4583 0 25C0 23.2083 0.1875 21.4479 0.5625 19.7188C0.9375 17.9896 1.47917 16.3125 2.1875 14.6875L6.0625 18.5625C5.72917 19.6458 5.46875 20.7188 5.28125 21.7812C5.09375 22.8438 5 23.9167 5 25C5 30.5833 6.9375 35.3125 10.8125 39.1875C14.6875 43.0625 19.4167 45 25 45C30.5833 45 35.3125 43.0625 39.1875 39.1875C43.0625 35.3125 45 30.5833 45 25C45 19.4167 43.0625 14.6875 39.1875 10.8125C35.3125 6.9375 30.5833 5 25 5C23.875 5 22.7812 5.09375 21.7188 5.28125C20.6562 5.46875 19.6042 5.72917 18.5625 6.0625L14.75 2.25C16.4167 1.5 18.0833 0.9375 19.75 0.5625C21.4167 0.1875 23.1667 0 25 0C28.4583 0 31.7083 0.65625 34.75 1.96875C37.7917 3.28125 40.4375 5.0625 42.6875 7.3125C44.9375 9.5625 46.7188 12.2083 48.0312 15.25C49.3438 18.2917 50 21.5417 50 25C50 28.4583 49.3438 31.7083 48.0312 34.75C46.7188 37.7917 44.9375 40.4375 42.6875 42.6875C40.4375 44.9375 37.7917 46.7188 34.75 48.0312C31.7083 49.3438 28.4583 50 25 50V50M8.75 12.5C7.70833 12.5 6.82292 12.1354 6.09375 11.4062C5.36458 10.6771 5 9.79167 5 8.75C5 7.70833 5.36458 6.82292 6.09375 6.09375C6.82292 5.36458 7.70833 5 8.75 5C9.79167 5 10.6771 5.36458 11.4062 6.09375C12.1354 6.82292 12.5 7.70833 12.5 8.75C12.5 9.79167 12.1354 10.6771 11.4062 11.4062C10.6771 12.1354 9.79167 12.5 8.75 12.5V12.5M25 25V25V25V25V25V25V25V25V25V25" fill="#D2EB74"/>
<path d="M77.84 49.728V17.184H81.56L81.632 21.72C81.872 21.224 82.208 20.688 82.64 20.112C83.088 19.536 83.648 18.992 84.32 18.48C84.992 17.952 85.784 17.528 86.696 17.208C87.624 16.872 88.688 16.704 89.888 16.704C91.904 16.704 93.68 17.152 95.216 18.048C96.752 18.944 97.944 20.32 98.792 22.176C99.656 24.032 100.088 26.384 100.088 29.232C100.088 32.016 99.68 34.4 98.864 36.384C98.064 38.352 96.888 39.864 95.336 40.92C93.784 41.96 91.888 42.48 89.648 42.48C88.448 42.48 87.4 42.312 86.504 41.976C85.608 41.64 84.84 41.2 84.2 40.656C83.56 40.112 83.032 39.552 82.616 38.976C82.2 38.384 81.864 37.824 81.608 37.296V49.728H77.84ZM89.024 39.48C91.216 39.48 92.992 38.656 94.352 37.008C95.728 35.36 96.416 32.816 96.416 29.376C96.416 26.432 95.792 24.088 94.544 22.344C93.312 20.584 91.472 19.704 89.024 19.704C86.592 19.704 84.736 20.592 83.456 22.368C82.192 24.144 81.56 26.48 81.56 29.376C81.56 31.264 81.84 32.976 82.4 34.512C82.976 36.032 83.816 37.24 84.92 38.136C86.024 39.032 87.392 39.48 89.024 39.48ZM109.701 42.264C108.517 42.264 107.541 42.096 106.773 41.76C106.021 41.408 105.429 40.928 104.997 40.32C104.581 39.712 104.293 39.016 104.133 38.232C103.973 37.448 103.893 36.624 103.893 35.76V6.336H107.589V35.448C107.589 36.808 107.845 37.808 108.357 38.448C108.869 39.072 109.541 39.408 110.373 39.456L111.765 39.48V41.928C111.413 42.04 111.053 42.12 110.685 42.168C110.317 42.232 109.989 42.264 109.701 42.264ZM122.326 42.48C120.71 42.48 119.286 42.2 118.054 41.64C116.838 41.064 115.886 40.248 115.198 39.192C114.526 38.136 114.19 36.864 114.19 35.376C114.19 32.624 115.134 30.584 117.022 29.256C118.91 27.928 121.958 27.208 126.166 27.096L130.942 26.952V24.888C130.942 23.272 130.454 21.984 129.478 21.024C128.502 20.048 126.99 19.568 124.942 19.584C123.406 19.584 122.07 19.944 120.934 20.664C119.814 21.368 119.102 22.504 118.798 24.072H115.39C115.486 22.52 115.918 21.2 116.686 20.112C117.47 19.008 118.574 18.168 119.998 17.592C121.422 17 123.126 16.704 125.11 16.704C127.174 16.704 128.902 17.008 130.294 17.616C131.702 18.208 132.766 19.104 133.486 20.304C134.206 21.488 134.566 22.96 134.566 24.72V42H131.35L131.086 37.224C130.094 39.192 128.83 40.56 127.294 41.328C125.774 42.096 124.118 42.48 122.326 42.48ZM123.382 39.672C124.262 39.672 125.15 39.512 126.046 39.192C126.942 38.872 127.758 38.432 128.494 37.872C129.23 37.312 129.822 36.688 130.27 36C130.718 35.312 130.942 34.608 130.942 33.888V29.472L126.958 29.544C124.862 29.576 123.142 29.784 121.798 30.168C120.454 30.552 119.462 31.144 118.822 31.944C118.182 32.728 117.862 33.76 117.862 35.04C117.862 36.496 118.374 37.632 119.398 38.448C120.422 39.264 121.75 39.672 123.382 39.672ZM139.452 42V17.184H143.052V20.808C143.468 20.088 144.036 19.424 144.756 18.816C145.492 18.208 146.38 17.72 147.42 17.352C148.476 16.984 149.661 16.8 150.973 16.8C152.572 16.8 154.028 17.12 155.34 17.76C156.668 18.384 157.725 19.36 158.509 20.688C159.293 22.016 159.684 23.72 159.684 25.8V42H155.941V26.136C155.941 24.024 155.405 22.464 154.332 21.456C153.261 20.448 151.845 19.944 150.085 19.944C148.884 19.944 147.756 20.136 146.7 20.52C145.644 20.904 144.796 21.488 144.156 22.272C143.516 23.056 143.196 24.04 143.196 25.224V42H139.452ZM164.521 42V17.184H168.121V20.808C168.537 20.088 169.105 19.424 169.825 18.816C170.561 18.208 171.449 17.72 172.489 17.352C173.545 16.984 174.729 16.8 176.041 16.8C177.641 16.8 179.097 17.12 180.409 17.76C181.737 18.384 182.793 19.36 183.577 20.688C184.361 22.016 184.753 23.72 184.753 25.8V42H181.009V26.136C181.009 24.024 180.473 22.464 179.401 21.456C178.329 20.448 176.913 19.944 175.153 19.944C173.953 19.944 172.825 20.136 171.769 20.52C170.713 20.904 169.865 21.488 169.225 22.272C168.585 23.056 168.265 24.04 168.265 25.224V42H164.521ZM199.862 42.48C197.59 42.48 195.582 41.984 193.838 40.992C192.11 39.984 190.758 38.536 189.782 36.648C188.806 34.76 188.318 32.488 188.318 29.832C188.318 27.192 188.758 24.888 189.638 22.92C190.518 20.936 191.798 19.408 193.478 18.336C195.158 17.248 197.182 16.704 199.55 16.704C201.838 16.704 203.774 17.2 205.358 18.192C206.942 19.168 208.15 20.568 208.982 22.392C209.814 24.216 210.23 26.392 210.23 28.92V30.456H192.158C192.142 32.12 192.406 33.632 192.95 34.992C193.51 36.352 194.358 37.44 195.494 38.256C196.63 39.072 198.062 39.48 199.79 39.48C201.486 39.48 202.942 39.088 204.158 38.304C205.374 37.504 206.134 36.376 206.438 34.92H210.038C209.734 36.584 209.07 37.976 208.046 39.096C207.022 40.216 205.79 41.064 204.35 41.64C202.926 42.2 201.43 42.48 199.862 42.48ZM192.182 27.792H206.582C206.582 26.256 206.326 24.872 205.814 23.64C205.302 22.408 204.518 21.432 203.462 20.712C202.422 19.992 201.102 19.632 199.502 19.632C197.822 19.632 196.438 20.04 195.35 20.856C194.262 21.656 193.454 22.68 192.926 23.928C192.414 25.176 192.166 26.464 192.182 27.792ZM214.284 42V17.184H217.836V21.672C218.252 20.504 218.836 19.56 219.588 18.84C220.356 18.104 221.212 17.568 222.156 17.232C223.116 16.88 224.084 16.704 225.06 16.704C225.46 16.704 225.852 16.736 226.236 16.8C226.62 16.848 226.924 16.936 227.148 17.064V20.712C226.892 20.584 226.548 20.496 226.116 20.448C225.7 20.4 225.348 20.376 225.06 20.376C224.18 20.328 223.324 20.392 222.492 20.568C221.66 20.744 220.9 21.056 220.212 21.504C219.54 21.952 219.004 22.552 218.604 23.304C218.22 24.056 218.028 24.976 218.028 26.064V42H214.284Z" fill="#0F172A"/>
<path d="M234.792 42C234.792 40.752 234.984 39.136 235.368 37.152C235.752 35.152 236.384 32.92 237.264 30.456C238.144 27.992 239.312 25.424 240.768 22.752C242.24 20.064 244.064 17.408 246.24 14.784H228.432V7.296H255.768V14.784C254.792 15.856 253.784 17.208 252.744 18.84C251.72 20.472 250.728 22.272 249.768 24.24C248.808 26.192 247.944 28.208 247.176 30.288C246.424 32.368 245.832 34.416 245.4 36.432C244.968 38.432 244.776 40.288 244.824 42H234.792Z" fill="#D2EB74"/>
</svg>
