<svg viewBox="0 0 24 24" fill="none" xmlns="http://www.w3.org/2000/svg">
	<path
		d="M8.20011 3.1001C8.3558 2.68834 8.94442 2.68834 9.10011 3.1001L10.0712 5.66824C10.1201 5.79778 10.2224 5.90011 10.3519 5.94908L12.9201 6.92011C13.3318 7.0758 13.3318 7.66442 12.9201 7.82011L10.3519 8.79114C10.2224 8.8401 10.1201 8.94243 10.0712 9.07198L9.10011 11.6401C8.94442 12.0519 8.3558 12.0519 8.20011 11.6401L7.22908 9.07198C7.18011 8.94243 7.07778 8.8401 6.94824 8.79114L4.3801 7.82011C3.96834 7.66442 3.96834 7.0758 4.3801 6.92011L6.94824 5.94908C7.07778 5.90011 7.18011 5.79778 7.22908 5.66824L8.20011 3.1001Z"
		fill="currentColor"
	/>
	<path
		d="M15.3646 10.4584C15.4693 10.1812 15.8656 10.1812 15.9703 10.4584L16.6239 12.1862C16.6568 12.2734 16.7256 12.3422 16.8129 12.3752L18.5406 13.0287C18.8179 13.1334 18.8179 13.5297 18.5406 13.6344L16.8129 14.288C16.7256 14.321 16.6568 14.3898 16.6239 14.477L15.9703 16.2048C15.8656 16.482 15.4693 16.482 15.3646 16.2048L14.7111 14.477C14.6781 14.3898 14.6093 14.321 14.5221 14.288L12.7943 13.6344C12.5171 13.5297 12.5171 13.1334 12.7943 13.0287L14.5221 12.3752C14.6093 12.3422 14.6781 12.2734 14.7111 12.1862L15.3646 10.4584Z"
		fill="currentColor"
	/>
</svg>
