<svg viewBox="0 0 24 24" fill="none" xmlns="http://www.w3.org/2000/svg">
  <path
    d="M15 4H17C18.1046 4 19 4.89543 19 6V19C19 20.1046 18.1046 21 17 21H7C5.89543 21 5 20.1046 5 19V6C5 4.89543 5.89543 4 7 4H9"
    stroke="currentColor"
    stroke-width="1.8"
    stroke-linecap="round"
    stroke-linejoin="round"
  />
  <path
    d="M9 4.5C9 3.67157 9.67157 3 10.5 3H13.5C14.3284 3 15 3.67157 15 4.5V5.5C15 6.32843 14.3284 7 13.5 7H10.5C9.67157 7 9 6.32843 9 5.5V4.5Z"
    stroke="currentColor"
    stroke-width="1.8"
    stroke-linecap="round"
    stroke-linejoin="round"
  />
  <path
    d="M9 11H15"
    stroke="currentColor"
    stroke-width="1.6"
    stroke-linecap="round"
  />
  <path
    d="M9 15H15"
    stroke="currentColor"
    stroke-width="1.6"
    stroke-linecap="round"
  />
</svg>
